<svg xmlns="http://www.w3.org/2000/svg" viewBox="0 0 132 132">
  <defs>
    <linearGradient id="bg" x1="0" x2="0" y1="0" y2="1">
      <stop offset="0%" stop-color="#f8dd3d"/>
      <stop offset="100%" stop-color="#f1f1f1"/>
    </linearGradient>
  </defs>
  <rect x="4" y="4" width="124" height="124" rx="20" fill="url(#bg)" stroke="#1d3557" stroke-width="4"/>
  <circle cx="32" cy="38" r="10" fill="#1d3557" opacity="0.12"/>
  <circle cx="100" cy="28" r="9" fill="#e63946" opacity="0.12"/>
  <path d="M66 35c-14 0-25 10-25 22 0 4 1 7 3 10h44c2-3 3-6 3-10 0-12-11-22-25-22z" fill="#1d3557" opacity="0.08"/>
  <path d="M66 92c-10 0-18-8-18-18v-8c0-1 0-2 1-2h34c1 0 1 1 1 2v8c0 10-8 18-18 18z" fill="#1d3557"/>
  <path d="M50 64c0-7 6-16 16-16 6 0 11 3 14 6 2 2 3 5 3 8v8H50v-6z" fill="#f1f1f1" opacity="0.7"/>
  <path d="M54 74c-9.5-7-13-18-9-27 6 1 12 6 16 13 2.5 4.5 4 9.5 4 14.5h-11z" fill="#3b7a57"/>
  <path d="M77 74c10-6 15-16 12-25-6 0-13 4-17 11-3 4.5-5 10-5 14h10z" fill="#4aa36b"/>
  <path d="M64 70c-1-13-8-23-19-26-3 9 0 20 8 27 3 3 7 5 11 6l0.5-7z" fill="#2e5f40"/>
  <rect x="52" y="84" width="28" height="6" rx="3" fill="#e63946" opacity="0.9"/>
</svg>
