<svg xmlns="http://www.w3.org/2000/svg" viewBox="0 0 132 132">
  <rect x="4" y="4" width="124" height="124" rx="18" fill="#f1f1f1" stroke="#1d3557" stroke-width="4"/>
  <circle cx="46" cy="52" r="26" fill="#f8dd3d"/>
  <rect x="66" y="32" width="36" height="58" rx="9" fill="#1d3557"/>
  <polygon points="66,32 94,32 80,18" fill="#e63946"/>
  <path d="M38 44c7 0 12 5 12 13 0 8-5 13-12 13h-5v-6h5c3 0 5-2 5-6 0-3-2-6-5-6h-5v-8z" fill="#1d3557"/>
  <path d="M78 52h12v28c0 8-6 14-15 14-6 0-11-2-14-6l5-4c1 2 4 4 9 4 4 0 7-2 7-7V52z" fill="#e63946"/>
</svg>
