<svg xmlns="http://www.w3.org/2000/svg" viewBox="0 0 132 132">
  <defs>
    <linearGradient id="quillGrad" x1="0" y1="0" x2="1" y2="1">
      <stop offset="0%" stop-color="#7ed957"/>
      <stop offset="100%" stop-color="#2f7a3c"/>
    </linearGradient>
    <linearGradient id="shaftGrad" x1="0" y1="0" x2="1" y2="0">
      <stop offset="0%" stop-color="#d9f2d9"/>
      <stop offset="100%" stop-color="#9ccf9c"/>
    </linearGradient>
  </defs>
  <rect x="6" y="6" width="120" height="120" rx="20" fill="#ffffff" stroke="#1d3557" stroke-width="3"/>
  <!-- Ink line -->
  <path d="M34 98c18-2 38-2 64-2" stroke="#0b3d2b" stroke-width="5" stroke-linecap="round" stroke-linejoin="round"/>
  <path d="M60 94c4 2 8 3 12 3 10 0 19-3 26-7" stroke="#0b3d2b" stroke-width="3" stroke-linecap="round" stroke-linejoin="round" opacity="0.8"/>
  <!-- Quill body -->
  <path d="M44 88c8-16 18-34 32-44 7-5 14-8 22-10 2 10-1 21-7 31-10 15-26 27-42 30z" fill="url(#quillGrad)" stroke="#245c3f" stroke-width="3" stroke-linejoin="round"/>
  <!-- Quill shaft -->
  <path d="M46 86c8-12 18-24 28-31 5-3 10-5 14-6" fill="none" stroke="url(#shaftGrad)" stroke-width="3" stroke-linecap="round"/>
  <!-- Tip -->
  <path d="M46 88l-6 8 10-2z" fill="#0b3d2b"/>
</svg>
